<svg width="250" height="229" viewBox="0 0 250 229" fill="none" xmlns="http://www.w3.org/2000/svg">
<rect width="250" height="229" fill="#070213"/>
<path d="M90.2864 115.653L90.2778 118.047C90.2778 118.079 90.2778 118.107 90.2736 118.14C90.2736 118.204 90.2608 118.265 90.2479 118.325C90.2223 118.436 90.1881 118.538 90.1283 118.635C90.1113 118.658 90.0942 118.681 90.0771 118.704C90.0088 118.792 89.9319 118.876 89.8379 118.936C89.8294 118.941 89.8251 118.95 89.8165 118.954C87.6211 120.256 85.4213 121.543 83.2173 122.83L82.252 123.391C82.1409 123.455 82.0171 123.488 81.8932 123.488C81.7693 123.488 81.6455 123.455 81.5344 123.391L80.5691 122.83C78.3651 121.548 76.161 120.256 73.9698 118.954C73.9613 118.954 73.957 118.945 73.9485 118.936C73.8545 118.876 73.7776 118.797 73.7093 118.704C73.6922 118.681 73.6708 118.658 73.658 118.635C73.6025 118.542 73.5641 118.436 73.5384 118.325C73.5256 118.265 73.5128 118.204 73.5128 118.14C73.5128 118.112 73.5085 118.079 73.5085 118.047V115.653H73.5V108.04C73.5 107.424 73.1882 106.855 72.6884 106.558L67.392 103.437C66.3583 102.826 65.0982 103.641 65.0982 104.919V118.626C65.0982 118.681 65.1068 118.737 65.1068 118.792C65.1068 118.913 65.1068 119.033 65.1068 119.149C65.1068 120.334 65.1068 121.515 65.1153 122.696C65.1153 123.034 65.1153 123.372 65.1153 123.71C65.1153 123.71 65.1153 123.71 65.1153 123.715C65.1153 123.798 65.1367 123.877 65.1452 123.96C65.1581 124.113 65.1666 124.266 65.2008 124.409C65.2435 124.585 65.3204 124.747 65.3972 124.905C65.4186 124.951 65.4271 125.002 65.4528 125.048C65.4827 125.099 65.5254 125.141 65.5553 125.192C65.7646 125.525 66.0337 125.812 66.3711 126.016C69.7498 128.031 73.1497 130.026 76.5497 132.018C78.1643 132.967 79.7703 133.925 81.3892 134.87C81.5472 134.963 81.7223 135.004 81.8932 135C82.0683 135 82.2392 134.963 82.3972 134.87C84.0118 133.925 85.6178 132.967 87.2324 132.018C90.6366 130.026 94.0366 128.026 97.4195 126.012C97.757 125.812 98.0261 125.521 98.2354 125.187C98.2653 125.136 98.308 125.099 98.3379 125.044C98.3635 124.997 98.3721 124.947 98.3934 124.9C98.4703 124.743 98.5429 124.581 98.5899 124.405C98.6283 124.261 98.6326 124.104 98.6454 123.956C98.654 123.872 98.6753 123.798 98.6753 123.715C98.6753 123.715 98.6753 123.71 98.6753 123.706C98.6753 123.367 98.6753 123.029 98.6753 122.691C98.6839 121.506 98.6839 120.325 98.6839 119.144C98.6839 119.024 98.6839 118.904 98.6839 118.788C98.6839 118.732 98.6924 118.677 98.6924 118.621V104.914C98.6924 103.636 97.4324 102.826 96.3987 103.433L91.1022 106.554C90.6025 106.85 90.2907 107.415 90.2907 108.035V115.648" fill="white"/>
<path d="M65.4741 99.7884L72.5518 103.812C73.1412 104.146 73.846 103.683 73.846 102.965V94.9633C73.846 94.4354 73.4487 94.0047 72.9618 94.0047H65.8842C65.3972 94.0047 65 94.4354 65 94.9633V98.9456C65 99.3022 65.1837 99.6309 65.4741 99.793V99.7884Z" fill="white"/>
<path d="M97.8851 94H90.8075C90.3205 94 89.9233 94.4306 89.9233 94.9585V103.386C89.9233 104.113 90.6452 104.576 91.2303 104.229L98.308 100.034C98.5899 99.867 98.7693 99.5429 98.7693 99.1909V94.9585C98.7693 94.4306 98.372 94 97.8851 94Z" fill="white"/>
<path d="M117.657 118.786V105.839H120.669V116.389H127.091V118.786H117.657Z" fill="white"/>
<path d="M139.793 118.953C138.436 118.953 137.264 118.702 136.278 118.2C135.291 117.699 134.53 116.952 133.996 115.961C133.462 114.963 133.194 113.747 133.194 112.313C133.194 110.878 133.462 109.665 133.996 108.674C134.53 107.676 135.291 106.927 136.278 106.425C137.264 105.924 138.436 105.673 139.793 105.673C141.149 105.673 142.321 105.927 143.308 106.434C144.294 106.936 145.055 107.685 145.589 108.682C146.124 109.674 146.391 110.884 146.391 112.313C146.391 113.742 146.124 114.955 145.589 115.952C145.055 116.943 144.291 117.693 143.299 118.2C142.312 118.702 141.143 118.953 139.793 118.953ZM139.793 116.582C140.932 116.582 141.804 116.238 142.409 115.55C143.014 114.861 143.316 113.803 143.316 112.374C143.316 110.893 143.011 109.802 142.4 109.102C141.795 108.397 140.926 108.044 139.793 108.044C138.665 108.044 137.796 108.388 137.185 109.076C136.574 109.758 136.269 110.817 136.269 112.252C136.269 113.75 136.568 114.847 137.167 115.541C137.772 116.235 138.647 116.582 139.793 116.582Z" fill="white"/>
<path d="M165.019 112.488V118.629C163.798 118.833 162.641 118.935 161.549 118.935C158.9 118.935 156.921 118.39 155.611 117.299C154.301 116.209 153.647 114.561 153.647 112.357C153.641 110.17 154.307 108.51 155.646 107.379C156.991 106.242 158.953 105.673 161.531 105.673C162.588 105.673 163.613 105.781 164.605 105.997V108.42C163.689 108.21 162.741 108.105 161.76 108.105C160.609 108.111 159.666 108.262 158.932 108.56C158.204 108.857 157.661 109.321 157.302 109.951C156.95 110.581 156.774 111.397 156.774 112.4C156.774 113.788 157.147 114.824 157.893 115.506C158.644 116.182 159.798 116.521 161.355 116.521C161.643 116.521 161.927 116.512 162.209 116.494V112.488H165.019Z" fill="white"/>
<path d="M173.489 118.786V105.839H174.96V118.786H173.489Z" fill="white"/>
<path d="M189.023 112.164L194 118.786H192.309L188.133 113.266L183.966 118.786H182.292L187.27 112.19L182.469 105.839H184.169L188.159 111.088L192.159 105.839H193.806L189.023 112.164Z" fill="white"/>
</svg>
