<svg width="250" height="229" viewBox="0 0 250 229" fill="none" xmlns="http://www.w3.org/2000/svg">
<rect width="250" height="229" fill="#070213"/>
<path d="M139.797 116.384L139.782 120.296C139.782 120.349 139.782 120.395 139.775 120.448C139.775 120.553 139.752 120.652 139.729 120.75C139.684 120.932 139.623 121.098 139.517 121.257C139.487 121.295 139.457 121.333 139.427 121.371C139.306 121.514 139.169 121.651 139.003 121.749C138.988 121.757 138.98 121.772 138.965 121.779C135.076 123.906 131.179 126.009 127.274 128.113L125.564 129.029C125.367 129.135 125.147 129.188 124.928 129.188C124.709 129.188 124.489 129.135 124.292 129.029L122.582 128.113C118.678 126.017 114.773 123.906 110.891 121.779C110.876 121.779 110.868 121.764 110.853 121.749C110.687 121.651 110.55 121.522 110.429 121.371C110.399 121.333 110.361 121.295 110.339 121.257C110.24 121.106 110.172 120.932 110.127 120.75C110.104 120.652 110.081 120.553 110.081 120.448C110.081 120.402 110.074 120.349 110.074 120.296V116.384H110.059V103.944C110.059 102.937 109.506 102.006 108.621 101.522L99.2376 96.4218C97.4064 95.423 95.1741 96.7548 95.1741 98.8433V121.242C95.1741 121.333 95.1892 121.424 95.1892 121.514C95.1892 121.711 95.1892 121.908 95.1892 122.097C95.1892 124.034 95.1892 125.964 95.2043 127.894C95.2043 128.446 95.2043 128.998 95.2043 129.551C95.2043 129.551 95.2043 129.551 95.2043 129.558C95.2043 129.695 95.2422 129.823 95.2573 129.959C95.28 130.209 95.2951 130.459 95.3557 130.693C95.4313 130.981 95.5676 131.246 95.7038 131.503C95.7416 131.579 95.7567 131.662 95.8021 131.738C95.8551 131.821 95.9308 131.889 95.9837 131.972C96.3545 132.517 96.8313 132.986 97.4291 133.319C103.415 136.611 109.438 139.872 115.462 143.126C118.322 144.677 121.167 146.244 124.035 147.788C124.315 147.939 124.625 148.007 124.928 147.999C125.238 147.999 125.541 147.939 125.821 147.788C128.681 146.244 131.527 144.677 134.387 143.126C140.418 139.872 146.441 136.603 152.435 133.312C153.032 132.986 153.509 132.51 153.88 131.965C153.933 131.881 154.009 131.821 154.062 131.73C154.107 131.654 154.122 131.571 154.16 131.496C154.296 131.238 154.425 130.973 154.508 130.686C154.576 130.451 154.584 130.194 154.606 129.952C154.621 129.816 154.659 129.695 154.659 129.558C154.659 129.558 154.659 129.551 154.659 129.543C154.659 128.991 154.659 128.438 154.659 127.886C154.674 125.949 154.674 124.019 154.674 122.09C154.674 121.893 154.674 121.696 154.674 121.507C154.674 121.416 154.69 121.325 154.69 121.234V98.8358C154.69 96.7472 152.457 95.423 150.626 96.4143L141.243 101.515C140.357 101.999 139.805 102.922 139.805 103.936V116.376" fill="white"/>
<path d="M95.84 90.4589L108.379 97.0348C109.423 97.5796 110.672 96.8229 110.672 95.65V82.574C110.672 81.7113 109.968 81.0076 109.105 81.0076H96.5664C95.7037 81.0076 95 81.7113 95 82.574V89.0817C95 89.6644 95.3254 90.2016 95.84 90.4665V90.4589Z" fill="white"/>
<path d="M153.259 81H140.721C139.858 81 139.154 81.7037 139.154 82.5664V96.3386C139.154 97.5266 140.433 98.2833 141.47 97.7158L154.009 90.86C154.508 90.5876 154.826 90.0579 154.826 89.4828V82.5664C154.826 81.7037 154.122 81 153.259 81Z" fill="white"/>
</svg>
