<svg width="300" height="80" viewBox="0 0 300 80" fill="none" xmlns="http://www.w3.org/2000/svg">
  <!-- U icon mark -->
  <path d="M33.5 40.7L33.49 42.98C33.49 43.01 33.49 43.04 33.49 43.07C33.49 43.13 33.48 43.19 33.47 43.25C33.44 43.37 33.4 43.48 33.34 43.58C33.32 43.6 33.3 43.63 33.28 43.65C33.21 43.73 33.13 43.81 33.04 43.86C33.03 43.87 33.02 43.87 33.02 43.88C30.93 45.06 28.83 46.24 26.73 47.42L25.81 47.93C25.7 47.99 25.58 48.02 25.46 48.02C25.34 48.02 25.22 47.99 25.11 47.93L24.19 47.42C22.09 46.25 19.99 45.06 17.9 43.88C17.9 43.88 17.89 43.87 17.88 43.86C17.79 43.81 17.72 43.74 17.65 43.65C17.63 43.63 17.61 43.6 17.6 43.58C17.54 43.49 17.5 43.37 17.47 43.25C17.46 43.19 17.44 43.13 17.44 43.07C17.44 43.04 17.44 43.01 17.44 42.98V40.7H17.43V33.69C17.43 33.04 17.13 32.44 16.64 32.15L11.51 29.13C10.49 28.54 9.26 29.33 9.26 30.58V43.54C9.26 43.59 9.27 43.65 9.27 43.7C9.27 43.81 9.27 43.92 9.27 44.03C9.27 45.18 9.27 46.33 9.28 47.48C9.28 47.81 9.28 48.13 9.28 48.46C9.28 48.46 9.28 48.46 9.28 48.46C9.28 48.54 9.3 48.62 9.31 48.7C9.33 48.84 9.34 48.98 9.38 49.11C9.42 49.28 9.5 49.43 9.57 49.59C9.59 49.63 9.6 49.68 9.62 49.72C9.65 49.77 9.69 49.82 9.72 49.87C9.97 50.24 10.29 50.56 10.71 50.8C14.09 52.71 17.5 54.6 20.9 56.49C22.5 57.4 24.09 58.31 25.69 59.21C25.86 59.3 26.04 59.34 26.21 59.34C26.39 59.34 26.56 59.3 26.73 59.21C28.32 58.31 29.92 57.4 31.51 56.49C34.91 54.6 38.31 52.7 41.71 50.8C42.12 50.56 42.44 50.24 42.69 49.87C42.72 49.82 42.77 49.77 42.8 49.72C42.83 49.68 42.84 49.63 42.86 49.59C42.93 49.43 43 49.28 43.05 49.11C43.09 48.98 43.09 48.84 43.1 48.7C43.11 48.62 43.13 48.54 43.13 48.46C43.13 48.46 43.13 48.46 43.13 48.46C43.13 48.13 43.13 47.8 43.13 47.47C43.14 46.32 43.14 45.17 43.14 44.02C43.14 43.91 43.14 43.8 43.14 43.7C43.14 43.65 43.15 43.59 43.15 43.54V30.58C43.15 29.33 41.92 28.54 40.9 29.12L35.77 32.14C35.28 32.43 34.98 33.03 34.98 33.68V40.7H33.5Z" fill="#7C3AED"/>
  <path d="M9.71 26.47L17.09 30.64C17.68 30.97 18.38 30.52 18.38 29.82V21.93C18.38 21.28 17.85 20.76 17.2 20.76H9.82C9.17 20.76 8.64 21.28 8.64 21.93V25.82C8.64 26.24 8.87 26.63 9.24 26.82" fill="#7C3AED"/>
  <path d="M41.78 20.76H34.4C33.75 20.76 33.22 21.28 33.22 21.93V30.64C33.22 31.36 34 31.81 34.59 31.46L41.97 27.16C42.31 26.96 42.52 26.6 42.52 26.21V21.93C42.52 21.28 41.99 20.76 41.34 20.76" fill="#7C3AED"/>
  <!-- ULOGIX text -->
  <path d="M57 50V35H60V47.3H67V50H57ZM80 50.2C78.5 50.2 77.2 49.9 76.1 49.3C75 48.7 74.1 47.8 73.5 46.6C72.9 45.4 72.6 43.9 72.6 42.2C72.6 40.5 72.9 39 73.5 37.8C74.1 36.6 75 35.7 76.1 35.1C77.2 34.5 78.5 34.2 80 34.2C81.5 34.2 82.8 34.5 83.9 35.1C85 35.7 85.9 36.6 86.5 37.8C87.1 39 87.4 40.5 87.4 42.2C87.4 43.9 87.1 45.4 86.5 46.6C85.9 47.8 85 48.7 83.9 49.3C82.8 49.9 81.5 50.2 80 50.2ZM80 47.5C81.2 47.5 82.1 47.1 82.7 46.3C83.3 45.5 83.6 44.1 83.6 42.3C83.6 40.4 83.3 39 82.7 38.2C82.1 37.3 81.2 36.9 80 36.9C78.8 36.9 77.9 37.3 77.3 38.1C76.7 38.9 76.4 40.3 76.4 42.2C76.4 44.1 76.7 45.5 77.3 46.3C77.9 47.1 78.8 47.5 80 47.5ZM107 42.5V49.8C105.6 50.1 104.2 50.2 102.9 50.2C99.8 50.2 97.5 49.5 96 48.1C94.5 46.7 93.7 44.6 93.7 41.9C93.7 39.3 94.5 37.2 96 35.7C97.6 34.2 99.9 33.4 103.1 33.4C104.3 33.4 105.5 33.5 106.7 33.8V36.8C105.7 36.6 104.7 36.5 103.6 36.5C102.1 36.5 100.9 36.7 100 37.1C99.1 37.5 98.5 38.1 98.1 38.9C97.7 39.7 97.5 40.7 97.5 41.9C97.5 43.6 97.9 44.8 98.8 45.6C99.7 46.4 101.1 46.8 103 46.8C103.3 46.8 103.6 46.8 103.9 46.8V42.5H107ZM116.5 50V35H118.4V50H116.5ZM135 42.9L141.3 50H139.2L133.9 43.4L128.7 50H126.7L133 42.9L127 35H129.1L134.1 41.4L139.1 35H141.1L135 42.9Z" fill="#7C3AED"/>
</svg>
