<svg width="434" height="250" viewBox="0 0 434 250" fill="none" xmlns="http://www.w3.org/2000/svg">
<rect width="434" height="250" fill="white"/>
<path d="M172.445 126.702L172.433 129.986C172.433 130.03 172.433 130.068 172.427 130.113C172.427 130.202 172.41 130.284 172.392 130.367C172.357 130.519 172.311 130.659 172.229 130.792C172.206 130.824 172.183 130.856 172.16 130.888C172.067 131.008 171.962 131.123 171.834 131.205C171.822 131.212 171.816 131.224 171.805 131.231C168.814 133.015 165.818 134.781 162.815 136.547L161.5 137.316C161.349 137.405 161.18 137.449 161.012 137.449C160.843 137.449 160.674 137.405 160.523 137.316L159.208 136.547C156.206 134.788 153.203 133.015 150.219 131.231C150.207 131.231 150.201 131.218 150.189 131.205C150.061 131.123 149.957 131.015 149.864 130.888C149.84 130.856 149.811 130.824 149.794 130.792C149.718 130.665 149.666 130.519 149.631 130.367C149.613 130.284 149.596 130.202 149.596 130.113C149.596 130.075 149.59 130.03 149.59 129.986V126.702H149.579V116.259C149.579 115.414 149.154 114.633 148.473 114.226L141.258 109.945C139.85 109.107 138.134 110.225 138.134 111.978V130.78C138.134 130.856 138.145 130.932 138.145 131.008C138.145 131.173 138.145 131.339 138.145 131.497C138.145 133.123 138.145 134.743 138.157 136.363C138.157 136.827 138.157 137.29 138.157 137.754C138.157 137.754 138.157 137.754 138.157 137.76C138.157 137.875 138.186 137.983 138.198 138.097C138.215 138.307 138.227 138.516 138.273 138.713C138.332 138.955 138.436 139.177 138.541 139.393C138.57 139.456 138.582 139.526 138.617 139.59C138.657 139.66 138.716 139.717 138.756 139.787C139.041 140.244 139.408 140.638 139.868 140.917C144.47 143.68 149.101 146.418 153.733 149.149C155.932 150.452 158.12 151.766 160.325 153.062C160.54 153.189 160.779 153.246 161.012 153.24C161.25 153.24 161.483 153.189 161.698 153.062C163.898 151.766 166.085 150.452 168.285 149.149C172.922 146.418 177.553 143.674 182.161 140.911C182.621 140.638 182.988 140.238 183.273 139.78C183.313 139.71 183.372 139.66 183.412 139.583C183.447 139.52 183.459 139.45 183.488 139.386C183.593 139.17 183.692 138.948 183.756 138.707C183.808 138.51 183.814 138.294 183.831 138.091C183.843 137.976 183.872 137.875 183.872 137.76C183.872 137.76 183.872 137.754 183.872 137.748C183.872 137.284 183.872 136.82 183.872 136.357C183.884 134.73 183.884 133.111 183.884 131.491C183.884 131.326 183.884 131.161 183.884 131.002C183.884 130.926 183.895 130.849 183.895 130.773V111.972C183.895 110.218 182.179 109.107 180.771 109.939L173.556 114.22C172.875 114.627 172.451 115.402 172.451 116.253V126.695" fill="#070213"/>
<path d="M138.646 104.94L148.287 110.46C149.09 110.917 150.05 110.282 150.05 109.297V98.3213C150.05 97.5972 149.509 97.0065 148.845 97.0065H139.204C138.541 97.0065 138 97.5972 138 98.3213V103.784C138 104.273 138.25 104.724 138.646 104.946V104.94Z" fill="#070213"/>
<path d="M182.796 97H173.155C172.491 97 171.95 97.5907 171.95 98.3148V109.875C171.95 110.873 172.933 111.508 173.731 111.031L183.372 105.277C183.756 105.048 184 104.603 184 104.121V98.3148C184 97.5907 183.459 97 182.796 97Z" fill="#070213"/>
<path d="M209.728 131V113.24H213.832V127.712H222.58V131H209.728ZM239.881 131.228C238.033 131.228 236.437 130.884 235.093 130.196C233.749 129.508 232.713 128.484 231.985 127.124C231.257 125.756 230.893 124.088 230.893 122.12C230.893 120.152 231.257 118.488 231.985 117.128C232.713 115.76 233.749 114.732 235.093 114.044C236.437 113.356 238.033 113.012 239.881 113.012C241.729 113.012 243.325 113.36 244.669 114.056C246.013 114.744 247.049 115.772 247.777 117.14C248.505 118.5 248.869 120.16 248.869 122.12C248.869 124.08 248.505 125.744 247.777 127.112C247.049 128.472 246.009 129.5 244.657 130.196C243.313 130.884 241.721 131.228 239.881 131.228ZM239.881 127.976C241.433 127.976 242.621 127.504 243.445 126.56C244.269 125.616 244.681 124.164 244.681 122.204C244.681 120.172 244.265 118.676 243.433 117.716C242.609 116.748 241.425 116.264 239.881 116.264C238.345 116.264 237.161 116.736 236.329 117.68C235.497 118.616 235.081 120.068 235.081 122.036C235.081 124.092 235.489 125.596 236.305 126.548C237.129 127.5 238.321 127.976 239.881 127.976ZM274.245 122.36V130.784C272.581 131.064 271.005 131.204 269.517 131.204C265.909 131.204 263.213 130.456 261.429 128.96C259.645 127.464 258.753 125.204 258.753 122.18C258.745 119.18 259.653 116.904 261.477 115.352C263.309 113.792 265.981 113.012 269.493 113.012C270.933 113.012 272.329 113.16 273.681 113.456V116.78C272.433 116.492 271.141 116.348 269.805 116.348C268.237 116.356 266.953 116.564 265.953 116.972C264.961 117.38 264.221 118.016 263.733 118.88C263.253 119.744 263.013 120.864 263.013 122.24C263.013 124.144 263.521 125.564 264.537 126.5C265.561 127.428 267.133 127.892 269.253 127.892C269.645 127.892 270.033 127.88 270.417 127.856V122.36H274.245ZM285.782 131V113.24H287.786V131H285.782ZM306.942 121.916L313.722 131H311.418L305.73 123.428L300.054 131H297.774L304.554 121.952L298.014 113.24H300.33L305.766 120.44L311.214 113.24H313.458L306.942 121.916Z" fill="#070213"/>
</svg>
