<svg width="800" height="52" viewBox="0 0 800 52" fill="none" xmlns="http://www.w3.org/2000/svg">
  <rect width="800" height="52" fill="#070213"/>

  <!-- Top rule -->
  <line x1="0" y1="0.5" x2="800" y2="0.5" stroke="white" stroke-width="0.5" opacity="0.1"/>

  <!-- Traveling dot on top rule -->
  <circle cy="0.5" r="1.2" fill="white">
    <animateMotion dur="9s" repeatCount="indefinite" path="M0,0 L800,0"/>
    <animate attributeName="opacity" values="0;0.45;0.45;0" dur="9s" keyTimes="0;0.03;0.97;1" repeatCount="indefinite"/>
  </circle>

  <!-- Icon — slow pulse -->
  <g transform="translate(-22.10,-22.78) scale(0.38)">
    <g>
      <animate attributeName="opacity" values="0.6;0.85;0.6" dur="6s" repeatCount="indefinite"/>
      <path d="M139.797 116.384L139.782 120.296C139.782 120.349 139.782 120.395 139.775 120.448C139.775 120.553 139.752 120.652 139.729 120.75C139.684 120.932 139.623 121.098 139.517 121.257C139.487 121.295 139.457 121.333 139.427 121.371C139.306 121.514 139.169 121.651 139.003 121.749C138.988 121.757 138.98 121.772 138.965 121.779C135.076 123.906 131.179 126.009 127.274 128.113L125.564 129.029C125.367 129.135 125.147 129.188 124.928 129.188C124.709 129.188 124.489 129.135 124.292 129.029L122.582 128.113C118.678 126.017 114.773 123.906 110.891 121.779C110.876 121.779 110.868 121.764 110.853 121.749C110.687 121.651 110.55 121.522 110.429 121.371C110.399 121.333 110.361 121.295 110.339 121.257C110.24 121.106 110.172 120.932 110.127 120.75C110.104 120.652 110.081 120.553 110.081 120.448C110.081 120.402 110.074 120.349 110.074 120.296V116.384H110.059V103.944C110.059 102.937 109.506 102.006 108.621 101.522L99.2376 96.4218C97.4064 95.423 95.1741 96.7548 95.1741 98.8433V121.242C95.1741 121.333 95.1892 121.424 95.1892 121.514C95.1892 121.711 95.1892 121.908 95.1892 122.097C95.1892 124.034 95.1892 125.964 95.2043 127.894C95.2043 128.446 95.2043 128.998 95.2043 129.551C95.2043 129.551 95.2043 129.551 95.2043 129.558C95.2043 129.695 95.2422 129.823 95.2573 129.959C95.28 130.209 95.2951 130.459 95.3557 130.693C95.4313 130.981 95.5676 131.246 95.7038 131.503C95.7416 131.579 95.7567 131.662 95.8021 131.738C95.8551 131.821 95.9308 131.889 95.9837 131.972C96.3545 132.517 96.8313 132.986 97.4291 133.319C103.415 136.611 109.438 139.872 115.462 143.126C118.322 144.677 121.167 146.244 124.035 147.788C124.315 147.939 124.625 148.007 124.928 147.999C125.238 147.999 125.541 147.939 125.821 147.788C128.681 146.244 131.527 144.677 134.387 143.126C140.418 139.872 146.441 136.603 152.435 133.312C153.032 132.986 153.509 132.51 153.88 131.965C153.933 131.881 154.009 131.821 154.062 131.73C154.107 131.654 154.122 131.571 154.16 131.496C154.296 131.238 154.425 130.973 154.508 130.686C154.576 130.451 154.584 130.194 154.606 129.952C154.621 129.816 154.659 129.695 154.659 129.558C154.659 129.558 154.659 129.551 154.659 129.543C154.659 128.991 154.659 128.438 154.659 127.886C154.674 125.949 154.674 124.019 154.674 122.09C154.674 121.893 154.674 121.696 154.674 121.507C154.674 121.416 154.69 121.325 154.69 121.234V98.8358C154.69 96.7472 152.457 95.423 150.626 96.4143L141.243 101.515C140.357 101.999 139.805 102.922 139.805 103.936V116.376" fill="white"/>
      <path d="M95.84 90.4589L108.379 97.0348C109.423 97.5796 110.672 96.8229 110.672 95.65V82.574C110.672 81.7113 109.968 81.0076 109.105 81.0076H96.5664C95.7037 81.0076 95 81.7113 95 82.574V89.0817C95 89.6644 95.3254 90.2016 95.84 90.4665V90.4589Z" fill="white"/>
      <path d="M153.259 81H140.721C139.858 81 139.154 81.7037 139.154 82.5664V96.3386C139.154 97.5266 140.433 98.2833 141.47 97.7158L154.009 90.86C154.508 90.5876 154.826 90.0579 154.826 89.4828V82.5664C154.826 81.7037 154.122 81 153.259 81Z" fill="white"/>
    </g>
  </g>

  <!-- Wordmark -->
  <g transform="translate(5.48,-10.93) scale(0.26)">
    <path d="M209.728 131V113.24H213.832V127.712H222.58V131H209.728ZM239.881 131.228C238.033 131.228 236.437 130.884 235.093 130.196C233.749 129.508 232.713 128.484 231.985 127.124C231.257 125.756 230.893 124.088 230.893 122.12C230.893 120.152 231.257 118.488 231.985 117.128C232.713 115.76 233.749 114.732 235.093 114.044C236.437 113.356 238.033 113.012 239.881 113.012C241.729 113.012 243.325 113.36 244.669 114.056C246.013 114.744 247.049 115.772 247.777 117.14C248.505 118.5 248.869 120.16 248.869 122.12C248.869 124.08 248.505 125.744 247.777 127.112C247.049 128.472 246.009 129.5 244.657 130.196C243.313 130.884 241.721 131.228 239.881 131.228ZM239.881 127.976C241.433 127.976 242.621 127.504 243.445 126.56C244.269 125.616 244.681 124.164 244.681 122.204C244.681 120.172 244.265 118.676 243.433 117.716C242.609 116.748 241.425 116.264 239.881 116.264C238.345 116.264 237.161 116.736 236.329 117.68C235.497 118.616 235.081 120.068 235.081 122.036C235.081 124.092 235.489 125.596 236.305 126.548C237.129 127.5 238.321 127.976 239.881 127.976ZM274.245 122.36V130.784C272.581 131.064 271.005 131.204 269.517 131.204C265.909 131.204 263.213 130.456 261.429 128.96C259.645 127.464 258.753 125.204 258.753 122.18C258.745 119.18 259.653 116.904 261.477 115.352C263.309 113.792 265.981 113.012 269.493 113.012C270.933 113.012 272.329 113.16 273.681 113.456V116.78C272.433 116.492 271.141 116.348 269.805 116.348C268.237 116.356 266.953 116.564 265.953 116.972C264.961 117.38 264.221 118.016 263.733 118.88C263.253 119.744 263.013 120.864 263.013 122.24C263.013 124.144 263.521 125.564 264.537 126.5C265.561 127.428 267.133 127.892 269.253 127.892C269.645 127.892 270.033 127.88 270.417 127.856V122.36H274.245ZM285.782 131V113.24H287.786V131H285.782ZM306.942 121.916L313.722 131H311.418L305.73 123.428L300.054 131H297.774L304.554 121.952L298.014 113.24H300.33L305.766 120.44L311.214 113.24H313.458L306.942 121.916Z" fill="white" opacity="0.65"/>
  </g>

  <text x="114" y="29"
        font-family="'Helvetica Neue', Helvetica, Arial, sans-serif"
        font-size="7" fill="white" letter-spacing="2" opacity="0.28">
    Universidad Nacional de Colombia · APM 2026-1
  </text>
  <text x="776" y="29"
        font-family="'Helvetica Neue', Helvetica, Arial, sans-serif"
        font-size="7" fill="white" letter-spacing="1" opacity="0.18" text-anchor="end">
    github.com/ulogix-team
  </text>
</svg>