<svg width="800" height="60" viewBox="0 0 800 60" fill="none" xmlns="http://www.w3.org/2000/svg">
  <defs>
    <linearGradient id="footBg" x1="0%" y1="0%" x2="100%" y2="0%">
      <stop offset="0%" style="stop-color:#070213"/>
      <stop offset="50%" style="stop-color:#0e0525"/>
      <stop offset="100%" style="stop-color:#070213"/>
    </linearGradient>
    <linearGradient id="footLine" x1="0%" y1="0%" x2="100%" y2="0%">
      <stop offset="0%" style="stop-color:#7C3AED;stop-opacity:0"/>
      <stop offset="30%" style="stop-color:#7C3AED"/>
      <stop offset="70%" style="stop-color:#a855f7"/>
      <stop offset="100%" style="stop-color:#7C3AED;stop-opacity:0"/>
    </linearGradient>
  </defs>
  <rect width="800" height="60" fill="url(#footBg)" rx="6"/>
  <rect x="0" y="0" width="800" height="1.5" fill="url(#footLine)"/>

  <!-- U icon small -->
  <g transform="translate(20, 8) scale(0.55)">
    <path d="M33.5 40.7L33.49 42.98C33.44 43.37 33.4 43.48 33.34 43.58C33.21 43.73 33.04 43.86L25.81 47.93C25.58 48.02 25.22 47.99 25.11 47.93L17.9 43.88C17.72 43.74 17.47 43.25 17.44 43.07V40.7H17.43V33.69C17.43 33.04 17.13 32.44 16.64 32.15L11.51 29.13C10.49 28.54 9.26 29.33 9.26 30.58V43.54C9.27 44.03 9.27 45.18 9.28 47.48C9.28 48.46 9.3 48.7 9.38 49.11C9.72 49.87 9.97 50.24 10.71 50.8C14.09 52.71 17.5 54.6 20.9 56.49C22.5 57.4 24.09 58.31 25.69 59.21C26.04 59.34 26.73 59.21 28.32 58.31C31.51 56.49 34.91 54.6 41.71 50.8C42.44 50.24 43.05 49.11 43.13 48.46C43.14 45.17 43.15 43.54V30.58C43.15 29.33 41.92 28.54 40.9 29.12L35.77 32.14C34.98 33.03 34.98 33.68V40.7H33.5Z" fill="#7C3AED" opacity="0.8"/>
    <path d="M9.71 26.47L17.09 30.64C17.68 30.97 18.38 30.52 18.38 21.93C18.38 21.28 17.85 20.76 17.2 20.76H9.82C9.17 20.76 8.64 21.28 8.64 21.93V25.82C8.64 26.24 8.87 26.63 9.24 26.82" fill="#7C3AED" opacity="0.8"/>
    <path d="M41.78 20.76H34.4C33.75 20.76 33.22 21.28 33.22 21.93V30.64C33.22 31.36 34 31.81 34.59 31.46L41.97 27.16C42.31 26.96 42.52 26.6 42.52 26.21V21.93C42.52 21.28 41.99 20.76 41.34 20.76" fill="#7C3AED" opacity="0.8"/>
  </g>

  <text x="55" y="32" font-family="'Courier New', monospace" font-size="11" fill="#a855f7" font-weight="600" letter-spacing="2">ULOGIX TEAM</text>
  <text x="55" y="47" font-family="'Courier New', monospace" font-size="8" fill="#7C3AED" letter-spacing="1" opacity="0.7">Universidad Nacional de Colombia · APM 2026-1</text>

  <!-- Right side -->
  <text x="570" y="32" font-family="'Courier New', monospace" font-size="8" fill="#7C3AED" letter-spacing="1" opacity="0.6" text-anchor="start">Automatización de Procesos de Manufactura</text>
  <text x="570" y="47" font-family="'Courier New', monospace" font-size="8" fill="#7C3AED" letter-spacing="1" opacity="0.4" text-anchor="start">Línea de Bebidas · 2026</text>

  <!-- Blinking cursor -->
  <rect x="780" y="22" width="6" height="16" fill="#7C3AED" rx="1">
    <animate attributeName="opacity" values="1;0;1" dur="1.2s" repeatCount="indefinite"/>
  </rect>
</svg>
