<svg width="800" height="100" viewBox="0 0 800 100" fill="none" xmlns="http://www.w3.org/2000/svg">
  <rect width="800" height="100" fill="white"/>

  <!-- Icon mark (dark on white, matching ulogix-light.svg exactly) -->
  <g transform="translate(32, 18) scale(0.52)">
    <path d="M33.5 40.7L33.49 42.98C33.49 43.01 33.49 43.04 33.49 43.07C33.49 43.13 33.48 43.19 33.47 43.25C33.44 43.37 33.4 43.48 33.34 43.58C33.32 43.6 33.3 43.63 33.28 43.65C33.21 43.73 33.13 43.81 33.04 43.86C33.03 43.87 33.02 43.87 33.02 43.88L25.81 47.93C25.7 47.99 25.58 48.02 25.46 48.02C25.34 48.02 25.22 47.99 25.11 47.93L17.9 43.88C17.89 43.87 17.89 43.87 17.88 43.86C17.79 43.81 17.72 43.74 17.65 43.65C17.63 43.63 17.61 43.6 17.6 43.58C17.54 43.49 17.5 43.37 17.47 43.25C17.46 43.19 17.44 43.13 17.44 43.07C17.44 43.04 17.44 43.01 17.44 42.98V40.7H17.43V33.69C17.43 33.04 17.13 32.44 16.64 32.15L11.51 29.13C10.49 28.54 9.26 29.33 9.26 30.58V43.54C9.27 43.81 9.27 44.03 9.27 44.03C9.27 45.18 9.27 46.33 9.28 47.48C9.28 48.13 9.28 48.46 9.28 48.46C9.3 48.7 9.38 49.11 9.38 49.11C9.42 49.28 9.57 49.59 9.57 49.59C9.65 49.77 9.72 49.87 9.72 49.87C9.97 50.24 10.29 50.56 10.71 50.8C14.09 52.71 17.5 54.6 20.9 56.49C22.5 57.4 24.09 58.31 25.69 59.21C26.04 59.34 26.39 59.3 26.73 59.21C28.32 58.31 29.92 57.4 31.51 56.49C34.91 54.6 38.31 52.7 41.71 50.8C42.44 50.24 42.86 49.59 43.05 49.11C43.1 48.84 43.13 48.46 43.13 48.46C43.14 46.32 43.15 43.54 43.15 43.54V30.58C43.15 29.33 41.92 28.54 40.9 29.12L35.77 32.14C34.98 33.03 34.98 33.68V40.7H33.5Z" fill="#070213"/>
    <path d="M9.71 26.47L17.09 30.64C17.68 30.97 18.38 30.52 18.38 21.93C18.38 21.28 17.85 20.76 17.2 20.76H9.82C9.17 20.76 8.64 21.28 8.64 21.93V25.82C8.64 26.24 8.87 26.63 9.24 26.82" fill="#070213"/>
    <path d="M41.78 20.76H34.4C33.75 20.76 33.22 21.28 33.22 21.93V30.64C33.22 31.36 34 31.81 34.59 31.46L41.97 27.16C42.52 26.6 42.52 26.21V21.93C42.52 21.28 41.99 20.76 41.34 20.76" fill="#070213"/>
  </g>

  <text x="67" y="51" font-family="Georgia, 'Times New Roman', serif" font-size="28" font-weight="400" fill="#070213" letter-spacing="6">ULOGIX</text>
  <text x="68" y="70" font-family="'Helvetica Neue', Helvetica, Arial, sans-serif" font-size="9" fill="#070213" letter-spacing="3" opacity="0.45">AUTOMATIZACIÓN DE MANUFACTURA · UNAL 2026-1</text>

  <line x1="740" y1="22" x2="740" y2="78" stroke="#070213" stroke-width="0.5" opacity="0.15"/>
  <line x1="0" y1="99" x2="800" y2="99" stroke="#070213" stroke-width="0.5" opacity="0.1"/>
</svg>
